<svg xmlns="http://www.w3.org/2000/svg" x="0px" y="0px" width="100" height="100" viewBox="0,0,256,256">
    <g fill="#b02424" fill-rule="nonzero" stroke="none" stroke-width="1" stroke-linecap="butt" stroke-linejoin="miter" stroke-miterlimit="10" stroke-dasharray="" stroke-dashoffset="0" text-anchor="none" style="mix-blend-mode: normal"><g transform="scale(3.2,3.2)"><path d="M16,11v62h16c2.76142,0 5,-2.23858 5,-5v-9c3.7,0.08 16.00023,-0.15992 24.49023,-6.16992l0.14063,-0.10937c0.80051,-0.55392 1.56206,-1.16212 2.2793,-1.82031c4.09,-3.8 6.08984,-8.82039 6.08984,-14.90039c0,-24.71 -21.78,-25 -22,-25zM18,13h18.7793c0.101,0.20767 0.27077,0.37399 0.48047,0.4707c0.12418,0.05048 0.2566,0.07763 0.39063,0.08008c0.37273,-0.00543 0.71149,-0.21772 0.87891,-0.55078h9.4707c3.15136,0.11663 6.24103,0.90787 9.06055,2.32031c0.118,0.35265 0.42194,0.6107 0.78906,0.66992h0.15039c0.07979,0.00965 0.16045,0.00965 0.24023,0c4.92,2.87 9.75977,8.61977 9.75977,20.00977c0.02166,2.38726 -0.38859,4.75875 -1.21094,7c-0.30857,0.07377 -0.56383,0.28959 -0.68787,0.5816c-0.12405,0.29201 -0.10217,0.62556 0.05897,0.89886c-0.89245,1.85263 -2.12017,3.52402 -3.62109,4.92969c-8.76,8.28 -25.27992,7.64984 -26.41992,7.58984c-0.03527,-0.16238 -0.11045,-0.31342 -0.21875,-0.43945c-0.23403,-0.2894 -0.60942,-0.42488 -0.97433,-0.35164c-0.36491,0.07324 -0.65895,0.34307 -0.7632,0.70036c-0.10425,0.35729 -0.00144,0.74291 0.26683,1.00089c0.1487,0.16436 0.35069,0.27089 0.57031,0.30078v9.78906c0,1.65685 -1.34315,3 -3,3h-14v-20.82031c0.38571,0.0007 0.73744,-0.22049 0.9039,-0.56843c0.16646,-0.34794 0.11798,-0.7606 -0.1246,-1.06048c-0.19405,-0.22792 -0.48001,-0.35692 -0.7793,-0.35156v-9.83984c0.30299,-0.18029 0.48865,-0.5068 0.48865,-0.85937c0,-0.35257 -0.18566,-0.67909 -0.48865,-0.85937v-13.30078c0.08287,-0.04411 0.16023,-0.09787 0.23047,-0.16016c0.37414,-0.40389 0.35144,-1.03423 -0.05078,-1.41016c-0.05376,-0.04569 -0.11441,-0.08261 -0.17969,-0.10937zM41.21289,13.35156c-0.44315,0.01663 -0.82242,0.32313 -0.93167,0.75293c-0.10925,0.4298 0.0776,0.88021 0.45902,1.10645c0.1487,0.08777 0.31759,0.13555 0.49023,0.13867c0.36738,0.01269 0.71211,-0.17722 0.8977,-0.49453c0.18559,-0.31731 0.18213,-0.71087 -0.00902,-1.02486c-0.19115,-0.314 -0.53916,-0.4978 -0.90626,-0.47866zM26.50391,13.73047c-0.1607,-0.00465 -0.32016,0.02952 -0.46484,0.09961c-0.42273,0.20411 -0.64658,0.67478 -0.53815,1.13151c0.10843,0.45673 0.51996,0.77656 0.98932,0.76888c0.55228,0.00378 1.00306,-0.44088 1.00684,-0.99316c0.00378,-0.55228 -0.44088,-1.00306 -0.99316,-1.00684zM44.51563,15.55078c-0.29027,0.01636 -0.55906,0.15824 -0.73633,0.38867c-0.1602,0.21541 -0.22706,0.48617 -0.18556,0.75139c0.04151,0.26522 0.18791,0.50261 0.40626,0.65877c0.16479,0.12431 0.364,0.19458 0.57031,0.20117c0.55228,-0.0151 0.98776,-0.47506 0.97266,-1.02734c-0.0151,-0.55228 -0.47506,-0.98776 -1.02734,-0.97266zM28.75195,16.90234c-0.41043,0.00505 -0.7761,0.26039 -0.9222,0.64397c-0.14611,0.38358 -0.04297,0.81749 0.26009,1.09431v0.00977c0.38131,0.40019 1.01485,0.41549 1.41504,0.03418c0.40019,-0.38131 0.41549,-1.01485 0.03418,-1.41504c-0.19275,-0.23589 -0.48251,-0.37107 -0.78711,-0.36719zM58.62695,17.91016c-0.55228,0.00917 -0.99257,0.46432 -0.9834,1.0166c0.00917,0.55228 0.46432,0.99257 1.0166,0.9834c0.12638,0.0001 0.25164,-0.02376 0.36914,-0.07031c0.45309,-0.17861 0.71161,-0.65766 0.6122,-1.13443c-0.09941,-0.47677 -0.52783,-0.81259 -1.01455,-0.79525zM47.5,18.32031c-0.39121,-0.01787 -0.75684,0.19427 -0.93549,0.54275c-0.17866,0.34849 -0.13746,0.76919 0.10542,1.07639c0.18832,0.23887 0.47513,0.37903 0.7793,0.38086c0.55228,0.01402 1.01137,-0.42232 1.02539,-0.97461c0.01402,-0.55228 -0.42232,-1.01137 -0.97461,-1.02539zM31.82422,19.59961c-0.43332,-0.00627 -0.82137,0.26729 -0.96107,0.67751c-0.13971,0.41023 0.00072,0.86376 0.34779,1.12327c0.17309,0.12946 0.38346,0.19936 0.59961,0.19922c0.31441,-0.00046 0.6103,-0.14877 0.79883,-0.40039c0.2255,-0.30088 0.26316,-0.70282 0.09748,-1.04035c-0.16567,-0.33753 -0.50668,-0.5536 -0.88264,-0.55926zM60.79102,21.32422c-0.40397,-0.01684 -0.77875,0.20989 -0.95134,0.57552c-0.17259,0.36564 -0.10943,0.79908 0.16032,1.10026c0.18818,0.22557 0.46602,0.35699 0.75977,0.35938c0.39146,0.00325 0.74882,-0.22223 0.91442,-0.57696c0.1656,-0.35473 0.10897,-0.77347 -0.14489,-1.07147l-0.0293,-0.05078c-0.1811,-0.20334 -0.43692,-0.32456 -0.70898,-0.33594zM35.00781,21.70508c-0.47251,0.01387 -0.87076,0.35672 -0.95474,0.82191c-0.08398,0.4652 0.16925,0.92565 0.60709,1.10387l-0.01953,0.00977c0.15442,0.09108 0.33049,0.13898 0.50977,0.13867c0.34705,-0.00127 0.66863,-0.18239 0.84961,-0.47852c0.13955,-0.2278 0.18216,-0.50196 0.11832,-0.76137c-0.06384,-0.25941 -0.22882,-0.48248 -0.45816,-0.61949c-0.18526,-0.14638 -0.41635,-0.22249 -0.65234,-0.21484zM49.42773,21.81055c-0.55228,-0.01025 -1.00831,0.42916 -1.01855,0.98145c-0.01025,0.55228 0.42916,1.00831 0.98145,1.01855c0.13337,-0.00269 0.26511,-0.02983 0.38867,-0.08008c0.4311,-0.18277 0.67765,-0.64021 0.59331,-1.10079c-0.08434,-0.46058 -0.47698,-0.80098 -0.94488,-0.81913zM63.67383,24c-0.55228,0.00162 -0.99869,0.45065 -0.99707,1.00293c0.00162,0.55228 0.45065,0.99869 1.00293,0.99707c0.31683,-0.00214 0.6139,-0.1543 0.80078,-0.41016c0.22198,-0.3039 0.25455,-0.7067 0.08427,-1.04231c-0.17028,-0.33561 -0.51457,-0.54721 -0.89091,-0.54753zM38.46484,24.08984c-0.31478,-0.01148 -0.61656,0.12603 -0.81445,0.37109c-0.34431,0.42553 -0.2825,1.04881 0.13867,1.39844c0.18001,0.14939 0.4067,0.23094 0.64063,0.23047c0.55228,0.00971 1.00787,-0.43014 1.01758,-0.98242c0.00971,-0.55228 -0.43014,-1.00787 -0.98242,-1.01758zM20.45898,24.20703c-0.41549,-0.00397 -0.79014,0.24941 -0.94116,0.6365c-0.15102,0.38709 -0.04693,0.82724 0.26147,1.10569c0.18312,0.1673 0.42188,0.26058 0.66992,0.26172c0.28227,-0.00062 0.55113,-0.12051 0.74023,-0.33008c0.2659,-0.29154 0.3355,-0.71219 0.17767,-1.07384c-0.15783,-0.36165 -0.51356,-0.59668 -0.90814,-0.59999zM50.86328,25.52539c-0.15723,-0.00096 -0.31248,0.03518 -0.45312,0.10547c-0.41996,0.20519 -0.64176,0.67391 -0.53413,1.12876c0.10763,0.45484 0.51597,0.77446 0.98335,0.76968c0.34648,-0.00097 0.66777,-0.18122 0.84918,-0.47641c0.18141,-0.29519 0.19709,-0.66326 0.04145,-0.97281c-0.16761,-0.33705 -0.5103,-0.55142 -0.88672,-0.55469zM23.35938,26.91406c-0.2542,0.01323 -0.49378,0.12289 -0.66992,0.30664c-0.36412,0.41438 -0.32392,1.04534 0.08984,1.41016c0.4149,0.36363 1.0459,0.32255 1.41016,-0.0918c0.24669,-0.30709 0.29013,-0.73039 0.11094,-1.08118c-0.17919,-0.35079 -0.54761,-0.5637 -0.94102,-0.54382zM41.32813,26.94336c-0.37882,-0.00678 -0.72894,0.20112 -0.90431,0.53698c-0.17537,0.33585 -0.14587,0.74198 0.07619,1.04896c0.1881,0.23256 0.47043,0.36871 0.76953,0.37109c0.23515,-0.00226 0.46197,-0.08732 0.64063,-0.24023c0.41937,-0.35265 0.47686,-0.97711 0.12891,-1.40039c-0.18454,-0.19713 -0.44096,-0.31125 -0.71094,-0.31641zM53.09766,28.83008c-0.25853,-0.00367 -0.50843,0.09293 -0.69727,0.26953c-0.42304,0.34922 -0.48578,0.97403 -0.14062,1.40039c0.19064,0.23448 0.4771,0.37017 0.7793,0.36914c0.23033,-0.00125 0.45317,-0.08196 0.63086,-0.22852c0.34962,-0.25254 0.49793,-0.70078 0.36795,-1.11201c-0.12998,-0.41123 -0.50897,-0.6928 -0.94022,-0.69853zM26.44141,29.48438c-0.41589,0.01613 -0.77831,0.28817 -0.90992,0.68302c-0.13162,0.39485 -0.00491,0.82993 0.31813,1.09237c0.17875,0.14374 0.40148,0.22167 0.63086,0.2207c0.29749,0.00002 0.57953,-0.13242 0.76953,-0.36133c0.25004,-0.30384 0.29865,-0.72608 0.12419,-1.07878c-0.17446,-0.35271 -0.53955,-0.57032 -0.93278,-0.55598zM43.42188,30.25977c-0.55228,-0.00054 -1.00044,0.44674 -1.00098,0.99902c-0.00054,0.55228 0.44674,1.00044 0.99902,1.00098c0.15666,0.00282 0.31139,-0.03485 0.44922,-0.10937c0.49075,-0.24907 0.68802,-0.84786 0.44141,-1.33984c-0.16902,-0.33616 -0.51242,-0.54899 -0.88867,-0.55078zM55.80078,31.77344c-0.42103,0.00558 -0.79364,0.27382 -0.93255,0.67131c-0.13891,0.3975 -0.01446,0.83943 0.31146,1.10603c0.18551,0.13472 0.41168,0.20161 0.64062,0.18945c0.40535,-0.01722 0.76013,-0.27765 0.89802,-0.65922c0.13789,-0.38157 0.03158,-0.80863 -0.26911,-1.08101c-0.1827,-0.14957 -0.41235,-0.22981 -0.64844,-0.22656zM29.35938,32.28906c-0.27929,-0.00441 -0.54769,0.10819 -0.74023,0.31055c-0.41671,0.362 -0.46129,0.99317 -0.09961,1.41016c0.19184,0.2183 0.46916,0.34234 0.75977,0.33984c0.23976,-0.00267 0.47058,-0.09139 0.65039,-0.25c0.34935,-0.25232 0.49776,-0.70007 0.36829,-1.1111c-0.12947,-0.41103 -0.50771,-0.69289 -0.9386,-0.69944zM45.07031,33.92969c-0.12704,-0.00035 -0.25298,0.02352 -0.37109,0.07031c-0.45742,0.16679 -0.72824,0.63878 -0.6414,1.11786c0.08684,0.47908 0.5061,0.82598 0.99296,0.8216c0.12014,0.00095 0.23918,-0.02299 0.34961,-0.07031c0.25372,-0.09011 0.46038,-0.27873 0.57323,-0.52319c0.11285,-0.24445 0.12236,-0.52409 0.02638,-0.77564c-0.14818,-0.38479 -0.51735,-0.63918 -0.92969,-0.64062zM59.12695,34.00781c-0.3279,-0.00334 -0.63661,0.1543 -0.82617,0.42188c-0.31889,0.44758 -0.21683,1.06862 0.22852,1.39062c0.16691,0.1259 0.37103,0.19257 0.58008,0.18945c0.43833,0.0036 0.82791,-0.27869 0.961,-0.69634c0.13309,-0.41765 -0.02133,-0.8733 -0.38092,-1.12397c-0.16491,-0.11585 -0.36098,-0.17916 -0.5625,-0.18164zM31.74805,35.49219c-0.19142,0.00342 -0.37784,0.06172 -0.53711,0.16797c-0.32955,0.26497 -0.45681,0.70859 -0.31783,1.10797c0.13897,0.39938 0.51412,0.66817 0.93697,0.67133c0.22512,-0.00115 0.44327,-0.07822 0.61914,-0.21875c0.30099,-0.28291 0.39705,-0.72177 0.24177,-1.10455c-0.15527,-0.38278 -0.52992,-0.63069 -0.94294,-0.62397zM61.96094,36.77734c-0.38479,0.00321 -0.7338,0.22635 -0.8982,0.57428c-0.16439,0.34793 -0.11516,0.75924 0.12671,1.05853c0.19107,0.23501 0.47837,0.37076 0.78125,0.36914c0.38571,0.0007 0.73744,-0.22049 0.9039,-0.56843c0.16646,-0.34794 0.11798,-0.7606 -0.1246,-1.06048c-0.19226,-0.23831 -0.48288,-0.37571 -0.78906,-0.37305zM21.04883,37.19727c-0.33421,-0.00458 -0.64861,0.15812 -0.83789,0.43359c-0.30248,0.44603 -0.1971,1.05153 0.23828,1.36914c0.1689,0.12205 0.3717,0.18828 0.58008,0.18945c0.43157,-0.00356 0.81217,-0.28359 0.94398,-0.69456c0.13181,-0.41097 -0.01491,-0.86013 -0.3639,-1.11404c-0.16414,-0.11617 -0.35949,-0.18015 -0.56055,-0.18359zM47,37.40625c-0.23058,-0.00822 -0.45691,0.06354 -0.64062,0.20313c-0.21217,0.15925 -0.35236,0.39628 -0.38972,0.65892c-0.03736,0.26264 0.03116,0.52936 0.1905,0.74147c0.19099,0.25494 0.49201,0.40364 0.81055,0.40039c0.2128,-0.00195 0.41944,-0.07174 0.58984,-0.19922c0.21368,-0.15779 0.35581,-0.39412 0.39501,-0.65684c0.03921,-0.26272 -0.02773,-0.53024 -0.18603,-0.74355c-0.18146,-0.24504 -0.4648,-0.3939 -0.76953,-0.4043zM34.20313,38.62891c-0.19247,0.01107 -0.37763,0.07754 -0.5332,0.19141c-0.42833,0.33193 -0.5152,0.94423 -0.1961,1.3822c0.3191,0.43797 0.92856,0.54293 1.37579,0.23694c0.21552,-0.15603 0.35997,-0.39151 0.40139,-0.65433c0.04142,-0.26282 -0.0236,-0.53132 -0.18068,-0.74606c-0.20034,-0.27549 -0.52713,-0.43006 -0.86719,-0.41016zM24.01172,39.82617c-0.24954,0.01158 -0.48572,0.11608 -0.66211,0.29297c-0.38783,0.39006 -0.38783,1.0201 0,1.41016c0.18878,0.18779 0.44466,0.29253 0.71094,0.29102c0.2656,0.001 0.52068,-0.10371 0.70898,-0.29102c0.28986,-0.29303 0.37037,-0.73382 0.20281,-1.1104c-0.16756,-0.37657 -0.54889,-0.61187 -0.96062,-0.59273zM64.44141,39.88867c-0.21589,0.00789 -0.42346,0.0853 -0.5918,0.2207c-0.20584,0.16831 -0.33617,0.41167 -0.36219,0.67628c-0.02602,0.26461 0.05441,0.52869 0.22352,0.73388c0.1881,0.23256 0.47043,0.36871 0.76953,0.37109c0.22871,0.00051 0.45068,-0.07738 0.62891,-0.2207c0.33542,-0.27154 0.45946,-0.72726 0.30793,-1.13134c-0.15153,-0.40408 -0.54463,-0.66587 -0.9759,-0.64991zM49.66602,40.35352c-0.29548,0.00018 -0.57576,0.13102 -0.76562,0.35742c-0.36036,0.4167 -0.31582,1.04638 0.09961,1.4082c0.18234,0.16081 0.41703,0.24969 0.66016,0.25c0.28846,-0.01045 0.55833,-0.14503 0.74023,-0.36914c0.36412,-0.41438 0.32392,-1.04534 -0.08984,-1.41016c-0.18023,-0.15236 -0.40853,-0.23607 -0.64453,-0.23633zM36.32031,42.06055c-0.19431,-0.00446 -0.3857,0.0478 -0.55078,0.15039c-0.46838,0.29086 -0.61298,0.90595 -0.32324,1.37503c0.28973,0.46908 0.90447,0.61516 1.37425,0.32655c0.46978,-0.2886 0.61733,-0.90299 0.32986,-1.37346c-0.1773,-0.2903 -0.49001,-0.47057 -0.83008,-0.47852zM52.95703,42.62109c-0.33531,-0.00326 -0.64994,0.16175 -0.83789,0.43945c-0.14829,0.22011 -0.203,0.49014 -0.15208,0.7506c0.05092,0.26047 0.2033,0.49001 0.42356,0.63807c0.16515,0.11095 0.35964,0.17011 0.55859,0.16992c0.43538,-0.00191 0.81949,-0.28529 0.94979,-0.70072c0.1303,-0.41543 -0.02317,-0.86742 -0.37948,-1.11764c-0.16514,-0.11515 -0.36119,-0.17778 -0.5625,-0.17969zM26.12891,43.21094c-0.55228,0.00863 -0.993,0.46334 -0.98437,1.01563c0.00863,0.55228 0.46334,0.993 1.01563,0.98438c0.13402,-0.00245 0.26645,-0.02959 0.39063,-0.08008c0.50781,-0.21598 0.74469,-0.80249 0.5293,-1.31055c-0.16098,-0.3799 -0.53876,-0.62193 -0.95117,-0.60937zM38.71875,45.24219c-0.26425,-0.01252 -0.5227,0.08019 -0.71875,0.25781c-0.40872,0.36925 -0.44188,0.99949 -0.07417,1.4096c0.36771,0.41011 0.99782,0.44564 1.40931,0.07948c0.41149,-0.36616 0.4494,-0.99614 0.08479,-1.409c-0.1785,-0.2027 -0.43141,-0.32457 -0.70117,-0.33789zM55.62695,45.49609c-0.1485,0.00231 -0.29461,0.03768 -0.42773,0.10352c-0.21217,0.15925 -0.35236,0.39628 -0.38972,0.65892c-0.03736,0.26264 0.03116,0.52936 0.1905,0.74147c0.19064,0.23448 0.4771,0.37017 0.7793,0.36914c0.22579,-0.00071 0.4447,-0.07781 0.62109,-0.21875c0.25821,-0.29832 0.31687,-0.72057 0.14977,-1.07798c-0.1671,-0.35741 -0.52873,-0.58316 -0.92321,-0.57632zM27.67188,46.84766c-0.16298,0.00919 -0.32123,0.05814 -0.46094,0.14258v0.00977c-0.49075,0.24907 -0.68802,0.84786 -0.44141,1.33984c0.17203,0.33299 0.51582,0.54183 0.89063,0.54102c0.15683,0.00222 0.31158,-0.03613 0.44922,-0.11133c0.44952,-0.18699 0.69905,-0.67055 0.59098,-1.14527c-0.10807,-0.47472 -0.54231,-0.80262 -1.02848,-0.77661zM41.72461,47.90039c-0.33964,-0.01143 -0.66185,0.1504 -0.85547,0.42969c-0.14986,0.21907 -0.20648,0.48872 -0.15739,0.74956c0.04909,0.26084 0.19986,0.49146 0.4191,0.64106c0.16678,0.11628 0.36505,0.17896 0.56836,0.17969c0.55228,0.00701 1.00568,-0.43502 1.0127,-0.9873c0.00701,-0.55228 -0.43502,-1.00568 -0.9873,-1.0127zM57.77344,48.83008c-0.11453,0.00414 -0.2275,0.02793 -0.33398,0.07031c-0.44672,0.17699 -0.70441,0.64668 -0.61367,1.11854c0.09074,0.47186 0.50426,0.81247 0.98476,0.81115c0.12653,0.00165 0.25208,-0.02227 0.36914,-0.07031c0.45164,-0.18054 0.7081,-0.65963 0.6079,-1.13559c-0.1002,-0.47595 -0.52806,-0.81097 -1.01415,-0.7941zM44.92383,50.17188c-0.267,0.01538 -0.51672,0.13707 -0.69336,0.33789c-0.36412,0.41438 -0.32392,1.04534 0.08984,1.41016c0.18234,0.16081 0.41703,0.24969 0.66016,0.25c0.36535,0.00204 0.70273,-0.19533 0.87999,-0.51481c0.17726,-0.31947 0.16619,-0.71019 -0.02889,-1.01911c-0.19508,-0.30892 -0.5431,-0.48686 -0.90775,-0.46413zM29.82617,50.23242c-0.37741,0.02008 -0.71126,0.25122 -0.86288,0.59742c-0.15162,0.3462 -0.0951,0.7483 0.14608,1.03929c0.19043,0.22944 0.47331,0.36193 0.77148,0.36133c0.23325,0.00001 0.45918,-0.08151 0.63867,-0.23047c0.33162,-0.27563 0.44921,-0.73279 0.29175,-1.13422c-0.15747,-0.40143 -0.55453,-0.65671 -0.9851,-0.63336zM19.70898,51.80078c-0.55228,0.00054 -0.99956,0.44869 -0.99902,1.00098c0.00054,0.55228 0.44869,0.99956 1.00098,0.99902c0.12003,-0.00015 0.23885,-0.02405 0.34961,-0.07031c0.24826,-0.0941 0.44891,-0.28306 0.55772,-0.52523c0.10881,-0.24217 0.11686,-0.51767 0.02236,-0.76578c-0.14907,-0.38469 -0.51908,-0.63834 -0.93164,-0.63867zM47.53516,53.18555c-0.19135,0.00553 -0.37709,0.06586 -0.53516,0.17383c-0.21893,0.1499 -0.3693,0.38067 -0.41802,0.64149c-0.04872,0.26082 0.00821,0.53031 0.15826,0.74914c0.18447,0.27254 0.49122,0.43688 0.82031,0.43945c0.20227,-0.00212 0.39987,-0.06099 0.57031,-0.16992c0.22171,-0.15001 0.37402,-0.38265 0.42285,-0.64585c0.04882,-0.2632 -0.00992,-0.53499 -0.16308,-0.75454c-0.19272,-0.28077 -0.51509,-0.44416 -0.85547,-0.43359zM32.5957,53.23438c-0.25003,-0.00971 -0.49462,0.07461 -0.68555,0.23633v-0.03125c-0.20324,0.17082 -0.33022,0.41545 -0.35293,0.67997c-0.02272,0.26452 0.06069,0.52722 0.23184,0.73019c0.19043,0.22944 0.47332,0.36193 0.77148,0.36133c0.23086,0.00554 0.45652,-0.06899 0.63867,-0.21094c0.31612,-0.26585 0.43641,-0.69862 0.30281,-1.08946c-0.1336,-0.39085 -0.49362,-0.65944 -0.90633,-0.67616zM21.56445,55.32813c-0.20219,0.00209 -0.39899,0.06542 -0.56445,0.18164c-0.22015,0.15153 -0.37048,0.38488 -0.41745,0.64799c-0.04697,0.2631 0.01333,0.53406 0.16745,0.7524c0.18861,0.27169 0.49935,0.43254 0.83008,0.42969c0.19962,0.00058 0.39485,-0.0586 0.56055,-0.16992c0.2205,-0.14838 0.37286,-0.37844 0.42343,-0.63936c0.05057,-0.26092 -0.00481,-0.53124 -0.1539,-0.75126c-0.18676,-0.2845 -0.5054,-0.45449 -0.8457,-0.45117zM24.12891,58.4043c-0.27291,-0.00524 -0.53611,0.10131 -0.72852,0.29492c-0.38783,0.39006 -0.38783,1.0201 0,1.41016c0.24451,0.27258 0.61838,0.38984 0.97477,0.30573c0.35639,-0.08411 0.63838,-0.35615 0.73522,-0.70929c0.09685,-0.35314 -0.00692,-0.73097 -0.27054,-0.98512c-0.18454,-0.19713 -0.44096,-0.31125 -0.71094,-0.31641zM27.08594,60.86328c-0.45229,0.0201 -0.83466,0.34157 -0.93215,0.78369c-0.09749,0.44212 0.11423,0.89458 0.51613,1.10303c0.15638,0.10525 0.3408,0.16105 0.5293,0.16016c0.34428,0.00319 0.66598,-0.17094 0.85156,-0.46094c0.2947,-0.46659 0.15572,-1.0837 -0.31055,-1.37891c-0.18685,-0.14403 -0.4186,-0.21736 -0.6543,-0.20703zM30.35938,63.31836c-0.22677,0.00501 -0.44509,0.08697 -0.61914,0.23242c-0.21655,0.17016 -0.35334,0.42209 -0.37811,0.69638c-0.02477,0.27429 0.06468,0.54665 0.24725,0.75284c0.19081,0.22871 0.47364,0.36045 0.77148,0.35938c0.23057,0.00355 0.4544,-0.07778 0.62891,-0.22852c0.21859,-0.16872 0.35768,-0.42032 0.38431,-0.69516c0.02663,-0.27484 -0.06156,-0.54846 -0.24369,-0.75601c-0.19476,-0.23479 -0.48603,-0.36784 -0.79102,-0.36133zM31.86523,66.98438c-0.07197,-0.00254 -0.144,0.0027 -0.21484,0.01563c-0.55228,0.04423 -0.96415,0.52779 -0.91992,1.08008c0.04423,0.55228 0.52779,0.96415 1.08008,0.91992h0.18945c0.5439,-0.09162 0.91092,-0.60632 0.82031,-1.15039c-0.0653,-0.48245 -0.46855,-0.84776 -0.95508,-0.86523z"></path></g></g>
    </svg>